Coordinates
version=1
nRows=7
nColumns=42
inDegrees=yes

Units are S.I. units (second, meters, Newtons, ...)
If the header above contains a line with 'inDegrees', this indicates whether rotational values are in degrees (yes) or radians (no).

endheader
time	pelvis_tilt	pelvis_list	pelvis_rotation	pelvis_tx	pelvis_ty	pelvis_tz	hip_flexion_r	hip_adduction_r	hip_rotation_r	knee_angle_r	knee_adduction_r	knee_angle_r_beta	ankle_angle_r	subtalar_angle_r	mtp_angle_r	hip_flexion_l	hip_adduction_l	hip_rotation_l	knee_angle_l	knee_adduction_l	knee_angle_l_beta	ankle_angle_l	subtalar_angle_l	mtp_angle_l	lumbar_extension	lumbar_bending	lumbar_rotation	arm_flex_r	arm_add_r	arm_rot_r	elbow_flex_r	pro_sup_r	wrist_flex_r	wrist_dev_r	arm_flex_l	arm_add_l	arm_rot_l	elbow_flex_l	pro_sup_l	wrist_flex_l	wrist_dev_l
      0.40000000	     10.11402416	     -2.83627479	     10.67581013	     -1.09024959	      0.87469083	      0.19245860	     -1.86988729	     10.46019932	     -4.36674178	     16.50099964	     -1.12281987	      0.28799677	     18.75941623	    -12.24839746	     -9.61554961	     10.27340294	     -0.43710542	      0.66387998	     64.08856462	    -11.04249249	      1.11855647	     17.78254119	    -18.26715191	     -9.61554961	    -39.93729025	      7.91755624	     -2.11116168	     14.91326265	     -8.09174935	     -7.77886180	     33.19721559	     90.00000001	      0.00000000	      0.00000000	     18.07304191	     -8.25845981	     -9.79860557	     31.66806720	     90.00000001	      0.00000000	      0.00000000
      0.41000000	     10.13072844	     -2.58763881	     10.50984691	     -1.08172636	      0.87502994	      0.19331862	     -2.57088885	     10.40926910	     -4.23587098	     16.55128830	     -1.22053632	      0.28887448	     19.42862633	    -12.03647250	     -9.54666797	     11.23707683	      0.10992059	      0.34532066	     62.91681420	    -11.20486602	      1.09810556	     17.87765850	    -18.26345570	     -9.54666797	    -40.04607846	      7.51998084	     -1.94273648	     15.51842510	     -8.31323754	     -7.51911960	     33.59838670	     90.00000001	      0.00000000	      0.00000000	     17.70821302	     -8.14561105	     -9.83254769	     30.93920465	     90.00000001	      0.00000000	      0.00000000
      0.42000000	     10.04958583	     -2.46945787	     10.43048578	     -1.07329842	      0.87490631	      0.19408190	     -3.09274499	     10.55732847	     -4.26213334	     16.63283582	     -1.51114715	      0.29029775	     19.93610245	    -11.89800316	     -9.51417049	     12.40145250	      0.51635605	      0.25571317	     61.73097826	    -11.19056649	      1.07740882	     18.07479715	    -18.20551568	     -9.51417049	    -40.01853257	      7.28265089	     -1.81915662	     16.14574891	     -8.49424651	     -7.37307535	     33.97246219	     90.00000001	      0.00000000	      0.00000000	     17.20872316	     -8.05302039	     -9.89785626	     30.48361319	     90.00000001	      0.00000000	      0.00000000
      0.43000000	     10.10347898	     -2.16869007	     10.21327682	     -1.06470977	      0.87515575	      0.19475429	     -3.85997470	     10.39228118	     -3.98255250	     16.68937469	     -1.51177142	      0.29128454	     20.67823772	    -11.82627013	     -9.46576003	     13.14909417	      1.10186395	      0.12771047	     60.07396902	    -11.04298160	      1.04848855	     18.01119858	    -18.18650140	     -9.46576003	    -40.14754173	      6.82944042	     -1.68031583	     16.77275683	     -8.73709158	     -6.98196584	     34.36087438	     90.00000001	      0.00000000	      0.00000000	     16.90049820	     -7.89159372	    -10.22176084	     29.59200893	     90.00000001	      0.00000000	      0.00000000
      0.44000000	     10.14817495	     -1.96012924	     10.05455946	     -1.05611639	      0.87517437	      0.19529770	     -4.62991316	     10.36394506	     -3.73648200	     16.66641500	     -1.59447627	      0.29088382	     21.22226924	    -11.74018542	     -9.41227368	     13.91287344	      1.58383084	      0.09711469	     58.30449108	    -10.84165382	      1.01760534	     17.91885631	    -18.12402112	     -9.41227368	    -40.23907866	      6.50330866	     -1.56473909	     17.38599732	     -9.00139985	     -6.54253518	     34.80118863	     90.00000001	      0.00000000	      0.00000000	     16.52963733	     -7.73324846	    -10.72385765	     28.87744456	     90.00000001	      0.00000000	      0.00000000
      0.45000000	     10.23358136	     -1.83169626	      9.95680679	     -1.04749781	      0.87517851	      0.19562315	     -5.57246496	     10.45463855	     -3.20605459	     16.36115744	     -1.65298093	      0.28555607	     21.46446035	    -11.92036474	     -9.28933523	     14.60230626	      1.95437355	      0.05542251	     56.35652073	    -10.64966858	      0.98360684	     17.80370267	    -18.00981495	     -9.28933523	    -40.35291730	      6.30979518	     -1.48103071	     17.98305679	     -9.33288023	     -5.83589602	     35.30160695	     90.00000001	      0.00000000	      0.00000000	     16.17834942	     -7.47339745	    -11.81144633	     28.17271733	     90.00000001	      0.00000000	      0.00000000
      0.46000000	     10.04514359	     -1.83806991	      9.89177297	     -1.03913477	      0.87427724	      0.19606070	     -5.91249182	     10.72696395	     -3.17689973	     16.51384972	     -2.00625403	      0.28822105	     22.04784507	    -11.83118481	     -9.25532705	     15.74535185	      2.16660972	      0.12558894	     54.54489888	    -10.29756029	      0.95198808	     17.87466084	    -17.82175519	     -9.25532705	    -40.15456591	      6.21185123	     -1.37245552	     18.61126815	     -9.53676758	     -5.68664265	     35.71240350	     90.00000001	      0.00000000	      0.00000000	     15.63779744	     -7.38105054	    -11.91673318	     27.75960053	     90.00000001	      0.00000000	      0.00000000
